<svg width="245" height="55" viewBox="0 0 245 55" fill="none" xmlns="http://www.w3.org/2000/svg">
<path fill-rule="evenodd" clip-rule="evenodd" d="M10.88 31.4699L8.50005 35.9499V50.9999H0.800049V1.99994H8.50005V23.3499L18.58 1.99994H26.28L15.57 23.8399L26.28 50.9999H18.37L10.88 31.4699ZM37.15 39.7299C37.15 41.5033 37.5117 42.7516 38.235 43.4749C38.9584 44.1983 39.9267 44.5599 41.14 44.5599C42.3534 44.5599 43.3217 44.1983 44.045 43.4749C44.7684 42.7516 45.13 41.5033 45.13 39.7299V13.2699C45.13 11.4966 44.7684 10.2483 44.045 9.52494C43.3217 8.8016 42.3534 8.43994 41.14 8.43994C39.9267 8.43994 38.9584 8.8016 38.235 9.52494C37.5117 10.2483 37.15 11.4966 37.15 13.2699V39.7299ZM29.45 13.7599C29.45 9.79325 30.4534 6.74829 32.46 4.62494C34.4667 2.5016 37.36 1.43994 41.14 1.43994C44.9201 1.43994 47.8134 2.5016 49.82 4.62494C51.8267 6.74829 52.83 9.79325 52.83 13.7599V39.2399C52.83 43.2066 51.8267 46.2516 49.82 48.3749C47.8134 50.4983 44.9201 51.5599 41.14 51.5599C37.36 51.5599 34.4667 50.4983 32.46 48.3749C30.4534 46.2516 29.45 43.2066 29.45 39.2399V13.7599ZM65.45 15.5099V50.9999H58.5201V1.99994H68.18L76.09 31.3299V1.99994H82.9501V50.9999H75.0401L65.45 15.5099ZM88.29 13.7599C88.29 9.79325 89.235 6.74829 91.125 4.62494C93.0151 2.5016 95.85 1.43994 99.63 1.43994C103.41 1.43994 106.245 2.5016 108.135 4.62494C110.025 6.74829 110.97 9.79325 110.97 13.7599V15.2999H103.69V13.2699C103.69 11.4966 103.352 10.2483 102.675 9.52494C101.998 8.8016 101.053 8.43994 99.84 8.43994C98.6267 8.43994 97.6817 8.8016 97.005 9.52494C96.3284 10.2483 95.99 11.4966 95.99 13.2699C95.99 14.9499 96.3634 16.4316 97.11 17.7149C97.8567 18.9983 98.79 20.2116 99.91 21.3549C101.03 22.4983 102.232 23.6416 103.515 24.7849C104.798 25.9283 106 27.1766 107.12 28.5299C108.24 29.8833 109.173 31.4233 109.92 33.1499C110.667 34.8766 111.04 36.9066 111.04 39.2399C111.04 43.2066 110.072 46.2516 108.135 48.3749C106.198 50.4983 103.34 51.5599 99.56 51.5599C95.78 51.5599 92.9217 50.4983 90.985 48.3749C89.0484 46.2516 88.08 43.2066 88.08 39.2399V36.2299H95.36V39.7299C95.36 41.5033 95.7217 42.7399 96.445 43.4399C97.1684 44.1399 98.1367 44.4899 99.35 44.4899C100.563 44.4899 101.532 44.1399 102.255 43.4399C102.978 42.7399 103.34 41.5033 103.34 39.7299C103.34 38.0499 102.967 36.5683 102.22 35.2849C101.473 34.0016 100.54 32.7883 99.42 31.6449C98.3 30.5016 97.0984 29.3583 95.815 28.2149C94.5317 27.0716 93.3301 25.8233 92.21 24.4699C91.09 23.1166 90.1567 21.5766 89.41 19.8499C88.6634 18.1233 88.29 16.0933 88.29 13.7599ZM114 1.99994H137.8V8.99994H129.75V50.9999H122.05V8.99994H114V1.99994ZM158.05 50.9999C157.957 50.6733 157.863 50.3699 157.77 50.0899C157.677 49.8099 157.595 49.4599 157.525 49.0399C157.455 48.6199 157.408 48.0833 157.385 47.4299C157.362 46.7766 157.35 45.9599 157.35 44.9799V37.2799C157.35 34.9933 156.953 33.3833 156.16 32.4499C155.367 31.5166 154.083 31.0499 152.31 31.0499H149.65V50.9999H141.95V1.99994H153.57C157.583 1.99994 160.488 2.93327 162.285 4.79994C164.082 6.66662 164.98 9.48992 164.98 13.2699V17.1199C164.98 22.16 163.3 25.4733 159.94 27.0599C161.9 27.8533 163.242 29.1483 163.965 30.9449C164.688 32.7416 165.05 34.9233 165.05 37.4899V45.0499C165.05 46.2633 165.097 47.3249 165.19 48.2349C165.283 49.1449 165.517 50.0666 165.89 50.9999H158.05ZM149.65 8.99994V24.0499H152.66C154.107 24.0499 155.238 23.6766 156.055 22.9299C156.872 22.1833 157.28 20.83 157.28 18.8699V14.0399C157.28 12.2666 156.965 10.9833 156.335 10.1899C155.705 9.3966 154.713 8.99994 153.36 8.99994H149.65ZM178.23 1.99994V39.7999C178.23 41.5733 178.592 42.8099 179.315 43.5099C180.038 44.2099 181.007 44.5599 182.22 44.5599C183.433 44.5599 184.402 44.2099 185.125 43.5099C185.848 42.8099 186.21 41.5733 186.21 39.7999V1.99994H193.49V39.3099C193.49 43.2766 192.522 46.3216 190.585 48.4449C188.648 50.5683 185.79 51.6299 182.01 51.6299C178.23 51.6299 175.372 50.5683 173.435 48.4449C171.498 46.3216 170.53 43.2766 170.53 39.3099V1.99994H178.23ZM220.57 1.99994H244.37V8.99994H236.32V50.9999H228.62V8.99994H220.57V1.99994Z" fill="white"/>
<path fill-rule="evenodd" clip-rule="evenodd" d="M197.148 27.4645L217.148 2.46448V52.4645L197.148 27.4645Z" fill="#00A4E5"/>
</svg>
